<?xml version="1.0" standalone="no"?>
<!DOCTYPE svg PUBLIC "-//W3C//DTD SVG 20010904//EN"
 "http://www.w3.org/TR/2001/REC-SVG-20010904/DTD/svg10.dtd">
<svg version="1.0" xmlns="http://www.w3.org/2000/svg"
 width="700.000000pt" height="700.000000pt" viewBox="0 0 700.000000 700.000000"
 preserveAspectRatio="xMidYMid meet">
<metadata>
Created by potrace 1.14, written by Peter Selinger 2001-2017
</metadata>
<g transform="translate(0.000000,700.000000) scale(0.100000,-0.100000)"
fill="#000000" stroke="none">
<path d="M3215 6994 c-736 -73 -1361 -324 -1920 -770 -141 -113 -406 -378
-519 -519 -413 -517 -653 -1079 -753 -1760 -25 -172 -25 -717 0 -890 99 -681
336 -1235 751 -1755 128 -160 366 -398 526 -526 128 -102 356 -261 364 -253 5
5 354 959 372 1019 27 87 35 169 24 249 -14 106 -41 180 -130 371 -124 263
-144 348 -156 662 -12 297 16 380 179 533 56 53 157 139 225 192 132 102 154
132 173 226 6 30 12 248 14 527 l3 475 51 465 c28 256 56 492 62 525 22 117
95 226 181 269 112 56 221 18 279 -97 40 -78 41 -113 8 -641 -33 -546 -33
-561 7 -931 29 -271 30 -272 60 -292 36 -23 67 -10 140 58 82 76 137 101 234
107 63 4 85 0 128 -18 66 -29 123 -91 152 -166 19 -52 22 -72 17 -168 -5 -106
-4 -110 20 -134 38 -38 70 -25 155 61 88 89 143 120 214 120 109 0 196 -75
229 -198 15 -53 17 -85 10 -182 -10 -175 -10 -181 10 -203 31 -34 61 -25 113
32 26 29 119 124 207 213 155 154 171 174 433 542 150 210 291 398 314 417 90
78 197 102 268 60 84 -47 111 -205 58 -344 -32 -86 -652 -1093 -833 -1355 -55
-79 -170 -270 -606 -1004 -108 -183 -137 -222 -307 -410 -220 -243 -323 -375
-374 -476 -17 -32 -108 -273 -203 -535 -168 -462 -173 -475 -152 -483 37 -15
579 -1 712 18 1116 156 2062 798 2606 1772 215 382 343 772 416 1258 25 172
26 716 0 890 -108 737 -385 1345 -853 1875 -563 637 -1305 1033 -2169 1156
-105 15 -640 28 -740 18z"/>
</g>
</svg>
